<?xml version="1.0" encoding="utf-8"?>
<!-- Generator: Adobe Illustrator 16.0.0, SVG Export Plug-In . SVG Version: 6.00 Build 0)  -->
<!DOCTYPE svg PUBLIC "-//W3C//DTD SVG 1.1//EN" "http://www.w3.org/Graphics/SVG/1.1/DTD/svg11.dtd">
<svg version="1.1" id="Layer_1" xmlns="http://www.w3.org/2000/svg" xmlns:xlink="http://www.w3.org/1999/xlink" x="0px" y="0px"
	 width="100px" height="20.5px" viewBox="0 0 100 20.5" enable-background="new 0 0 100 20.5" xml:space="preserve">
<g>
	<path fill="#21738C" d="M6.245,6.909c0.639-0.398,1.252-0.681,1.841-0.848c0.589-0.167,1.083-0.251,1.481-0.251
		c0.826,0,1.439,0.182,1.841,0.545s0.602,1.096,0.602,2.197c0,2.882,0.053,4.437,0.158,4.662s0.334,0.335,0.686,0.329
		c0.088,0.211,0.132,0.431,0.132,0.659c0,0.211-0.069,0.354-0.207,0.431s-0.4,0.114-0.787,0.114c-0.949,0-1.55-0.015-1.801-0.044
		c-0.252-0.029-0.425-0.124-0.519-0.285s-0.141-0.433-0.141-0.813v-3.102c0-1.195-0.11-1.996-0.33-2.404
		c-0.22-0.406-0.576-0.61-1.068-0.61c-0.416,0-0.744,0.122-0.984,0.365C6.91,8.098,6.79,8.605,6.79,9.379v1.767
		c0,0.737,0.015,1.537,0.044,2.398h1.045c0.1,0.193,0.149,0.41,0.149,0.65c0,0.205-0.042,0.349-0.127,0.431s-0.25,0.123-0.496,0.123
		H3.266c-0.105-0.246-0.158-0.478-0.158-0.694c0-0.182,0.041-0.312,0.123-0.391s0.214-0.119,0.396-0.119h0.641
		c0.029-0.967,0.044-1.965,0.044-2.996c0-1.641-0.078-2.61-0.232-2.909C3.923,7.34,3.652,7.19,3.266,7.19
		C3.16,6.956,3.107,6.722,3.107,6.487c0-0.211,0.078-0.349,0.233-0.413s1.123-0.123,2.904-0.176
		C6.274,6.145,6.274,6.481,6.245,6.909z"/>
	<path fill="#21738C" d="M18.117,14.924c-1.312,0-2.301-0.343-2.966-1.028c-0.665-0.686-0.998-1.679-0.998-2.979
		c0-1.623,0.403-2.881,1.208-3.774c0.806-0.894,1.938-1.341,3.396-1.341c1.312,0,2.3,0.343,2.962,1.028
		c0.662,0.686,0.993,1.679,0.993,2.979c0,1.623-0.401,2.881-1.204,3.774C20.707,14.478,19.576,14.924,18.117,14.924z M18.53,13.403
		c0.474,0,0.827-0.188,1.059-0.566s0.347-1.112,0.347-2.201c0-1.189-0.127-2.039-0.382-2.549s-0.658-0.765-1.208-0.765
		c-0.475,0-0.828,0.189-1.059,0.567c-0.231,0.377-0.347,1.111-0.347,2.201c0,1.189,0.127,2.038,0.382,2.548
		S17.979,13.403,18.53,13.403z"/>
	<path fill="#21738C" d="M37.6,7.357c-0.158,0.439-0.561,1.667-1.207,3.683c-0.648,2.015-1.1,3.166-1.354,3.453
		c-0.256,0.287-0.633,0.431-1.131,0.431c-0.865,0-1.334-0.047-1.4-0.141c-0.068-0.094-0.314-1.182-0.742-3.265
		s-0.682-3.124-0.762-3.124c-0.078,0-0.326,0.944-0.742,2.834s-0.75,2.978-1.006,3.265c-0.254,0.287-0.605,0.431-1.051,0.431
		c-1.137,0-1.74-0.047-1.81-0.141s-0.299-1.038-0.686-2.834s-0.645-2.912-0.773-3.349c-0.129-0.436-0.241-0.755-0.334-0.957
		c-0.094-0.202-0.198-0.328-0.312-0.378S23.979,7.19,23.697,7.19c-0.105-0.217-0.158-0.448-0.158-0.694
		c0-0.27,0.105-0.437,0.316-0.501s0.805-0.097,1.784-0.097c0.469,0,0.806,0.035,1.011,0.105c0.205,0.07,0.348,0.198,0.426,0.383
		c0.08,0.185,0.174,0.616,0.281,1.296c0.109,0.68,0.279,1.729,0.514,3.146c0.234,1.417,0.391,2.126,0.467,2.126
		s0.324-0.936,0.742-2.808s0.717-3.262,0.893-4.17c1.453-0.053,2.283-0.045,2.49,0.022c0.209,0.067,0.352,0.193,0.432,0.378
		c0.078,0.185,0.172,0.602,0.277,1.252s0.305,1.7,0.602,3.15c0.295,1.45,0.482,2.175,0.562,2.175c0.078,0,0.303-0.804,0.672-2.412
		s0.58-2.67,0.633-3.186h-0.555c-0.105-0.205-0.158-0.422-0.158-0.65s0.047-0.394,0.137-0.496c0.092-0.103,0.238-0.154,0.443-0.154
		h2.664c0.1,0.199,0.148,0.41,0.148,0.633c0,0.258-0.049,0.434-0.148,0.527s-0.273,0.141-0.52,0.141H37.6z"/>
	<path fill="#21738C" d="M43.029,13.544h1.037c0.1,0.193,0.15,0.41,0.15,0.65c0,0.205-0.043,0.349-0.127,0.431
		c-0.086,0.082-0.252,0.123-0.498,0.123h-4.217c-0.1-0.246-0.15-0.478-0.15-0.694c0-0.182,0.041-0.312,0.123-0.391
		s0.215-0.119,0.396-0.119h0.721c0.029-0.75,0.043-1.55,0.043-2.398c0-1.295-0.01-2.155-0.031-2.58
		c-0.02-0.424-0.064-0.734-0.135-0.931s-0.18-0.319-0.326-0.369S39.656,7.19,39.375,7.19c-0.1-0.164-0.15-0.354-0.15-0.571
		c0-0.328,0.135-0.53,0.404-0.606s0.818-0.114,1.645-0.114c0.619,0,1.043,0.023,1.27,0.07c0.225,0.047,0.354,0.14,0.387,0.277
		c0.031,0.138,0.047,0.329,0.047,0.575v4.324C42.982,11.994,43,12.794,43.029,13.544z M41.422,4.756
		c-0.527,0-0.908-0.101-1.143-0.303s-0.352-0.487-0.352-0.856c0-0.387,0.15-0.705,0.449-0.954S41.1,2.27,41.65,2.27
		c0.562,0,0.961,0.106,1.195,0.32s0.352,0.494,0.352,0.84c0,0.381-0.141,0.697-0.422,0.949S42.043,4.756,41.422,4.756z"/>
	<path fill="#21738C" d="M48.311,6.909c0.639-0.398,1.254-0.681,1.842-0.848c0.59-0.167,1.082-0.251,1.48-0.251
		c0.826,0,1.439,0.182,1.842,0.545c0.4,0.363,0.602,1.096,0.602,2.197c0,2.882,0.053,4.437,0.158,4.662s0.334,0.335,0.686,0.329
		c0.088,0.211,0.131,0.431,0.131,0.659c0,0.211-0.068,0.354-0.205,0.431c-0.139,0.076-0.4,0.114-0.787,0.114
		c-0.949,0-1.549-0.015-1.801-0.044s-0.426-0.124-0.52-0.285s-0.141-0.433-0.141-0.813v-3.102c0-1.195-0.109-1.996-0.328-2.404
		c-0.221-0.406-0.576-0.61-1.068-0.61c-0.416,0-0.744,0.122-0.984,0.365s-0.361,0.751-0.361,1.524v1.767
		c0,0.737,0.016,1.537,0.045,2.398h1.045c0.1,0.193,0.15,0.41,0.15,0.65c0,0.205-0.043,0.349-0.127,0.431
		c-0.086,0.082-0.252,0.123-0.498,0.123h-4.139c-0.105-0.246-0.158-0.478-0.158-0.694c0-0.182,0.041-0.312,0.123-0.391
		s0.215-0.119,0.396-0.119h0.641c0.029-0.967,0.045-1.965,0.045-2.996c0-1.641-0.078-2.61-0.234-2.909
		C45.99,7.34,45.719,7.19,45.332,7.19c-0.105-0.234-0.158-0.469-0.158-0.703c0-0.211,0.078-0.349,0.232-0.413
		c0.156-0.064,1.125-0.123,2.904-0.176C48.34,6.145,48.34,6.481,48.311,6.909z"/>
	<path fill="#21738C" d="M62.346,14.071c-0.621,0.328-1.162,0.553-1.625,0.673c-0.463,0.119-0.926,0.18-1.389,0.18
		c-0.996,0-1.764-0.297-2.303-0.892s-0.809-1.625-0.809-3.089c0-1.746,0.408-3.039,1.227-3.88c0.816-0.841,1.928-1.262,3.334-1.262
		c0.258,0,0.463,0.006,0.615,0.018s0.32,0.026,0.502,0.044c0-0.229-0.012-0.516-0.035-0.861C61.84,4.657,61.795,4.359,61.73,4.11
		s-0.176-0.41-0.338-0.483c-0.16-0.073-0.371-0.109-0.629-0.109c-0.105-0.24-0.158-0.48-0.158-0.721
		c0-0.246,0.094-0.403,0.277-0.471c0.186-0.067,0.775-0.101,1.771-0.101c0.621,0,1.045,0.024,1.273,0.074s0.359,0.143,0.391,0.277
		c0.033,0.135,0.049,0.325,0.049,0.571v6.23c0,2.051,0.057,3.271,0.168,3.66s0.295,0.558,0.553,0.505
		c0.117,0.17,0.176,0.34,0.176,0.51c0,0.217-0.254,0.416-0.76,0.598c-0.508,0.182-0.91,0.272-1.209,0.272
		c-0.182,0-0.33-0.047-0.443-0.141C62.736,14.689,62.568,14.452,62.346,14.071z M60.535,7.322c-0.498,0-0.877,0.188-1.137,0.562
		c-0.262,0.375-0.391,1.192-0.391,2.452c0,1.031,0.113,1.8,0.342,2.307s0.609,0.76,1.143,0.76c0.328,0,0.605-0.065,0.83-0.197
		c0.227-0.132,0.379-0.305,0.457-0.519c0.08-0.214,0.119-0.693,0.119-1.437V7.7c-0.193-0.105-0.404-0.194-0.633-0.268
		S60.793,7.322,60.535,7.322z"/>
	<path fill="#21738C" d="M70.879,14.924c-1.623,0-2.756-0.3-3.4-0.9s-0.967-1.631-0.967-3.089c0-1.641,0.42-2.906,1.26-3.797
		c0.842-0.891,2.096-1.336,3.766-1.336c0.879,0,1.486,0.076,1.824,0.229c0.336,0.152,0.512,0.407,0.523,0.765
		c0,0.457-0.145,0.873-0.432,1.248c-0.973-0.48-1.764-0.721-2.373-0.721s-1.059,0.216-1.348,0.646
		c-0.291,0.431-0.436,1.188-0.436,2.272c0,1.072,0.143,1.867,0.426,2.386c0.285,0.519,0.801,0.777,1.551,0.777
		c0.609,0,1.393-0.226,2.348-0.677c0.246,0.34,0.369,0.697,0.369,1.072c0,0.381-0.311,0.664-0.932,0.849
		C72.438,14.831,71.711,14.924,70.879,14.924z"/>
	<path fill="#21738C" d="M78.77,13.544h1.037c0.1,0.193,0.15,0.41,0.15,0.65c0,0.205-0.043,0.349-0.127,0.431
		c-0.086,0.082-0.252,0.123-0.498,0.123h-4.217c-0.1-0.246-0.15-0.478-0.15-0.694c0-0.182,0.041-0.312,0.123-0.391
		s0.215-0.119,0.396-0.119h0.721c0.029-0.75,0.043-1.55,0.043-2.398c0-1.295-0.01-2.155-0.031-2.58
		c-0.02-0.424-0.064-0.734-0.135-0.931s-0.18-0.319-0.326-0.369S75.396,7.19,75.115,7.19c-0.1-0.164-0.15-0.354-0.15-0.571
		c0-0.328,0.135-0.53,0.404-0.606s0.818-0.114,1.645-0.114c0.619,0,1.043,0.023,1.27,0.07c0.225,0.047,0.354,0.14,0.387,0.277
		c0.031,0.138,0.047,0.329,0.047,0.575v4.324C78.723,11.994,78.74,12.794,78.77,13.544z M77.162,4.756
		c-0.527,0-0.908-0.101-1.143-0.303s-0.352-0.487-0.352-0.856c0-0.387,0.15-0.705,0.449-0.954S76.84,2.27,77.391,2.27
		c0.562,0,0.961,0.106,1.195,0.32s0.352,0.494,0.352,0.84c0,0.381-0.141,0.697-0.422,0.949S77.783,4.756,77.162,4.756z"/>
	<path fill="#21738C" d="M81.266,6.057h0.615l0.871-2.645c0.299,0.088,0.574,0.202,0.83,0.343c0.254,0.141,0.447,0.302,0.58,0.483
		c0.131,0.182,0.197,0.629,0.197,1.344v0.475h2.971c0.1,0.234,0.148,0.483,0.148,0.747c0,0.223-0.041,0.372-0.123,0.448
		s-0.24,0.114-0.475,0.114h-2.521v3.472c0,1.007,0.084,1.692,0.254,2.056s0.453,0.553,0.85,0.567
		c0.395,0.015,0.877-0.125,1.445-0.418c0.17,0.229,0.254,0.489,0.254,0.782c0,0.398-0.209,0.667-0.627,0.805
		c-0.42,0.137-1.072,0.206-1.957,0.206c-0.965,0-1.656-0.193-2.068-0.58c-0.414-0.387-0.619-1.137-0.619-2.25v-1.528
		c0-0.967-0.029-2.004-0.088-3.111h-0.896c-0.105-0.252-0.158-0.507-0.158-0.765c0-0.199,0.039-0.34,0.117-0.422
		C80.945,6.098,81.078,6.057,81.266,6.057z"/>
	<path fill="#21738C" d="M96.768,7.357c-0.182,0.475-0.689,2.139-1.525,4.991c-0.834,2.854-1.477,4.539-1.928,5.058
		s-0.982,0.85-1.596,0.993c-0.611,0.144-1.289,0.215-2.033,0.215c-0.762,0-1.266-0.065-1.512-0.197s-0.369-0.355-0.369-0.672
		c0-0.375,0.125-0.718,0.377-1.028c1.254,0.264,2.164,0.378,2.729,0.343c0.566-0.035,1.076-0.776,1.533-2.224
		c-0.92,0.023-1.416,0.016-1.488-0.022c-0.074-0.038-0.338-0.983-0.791-2.838c-0.455-1.854-0.738-2.992-0.854-3.414
		c-0.113-0.422-0.205-0.73-0.275-0.927s-0.168-0.319-0.291-0.369S88.42,7.19,88.139,7.19c-0.1-0.27-0.15-0.516-0.15-0.738
		c0-0.27,0.121-0.429,0.361-0.479s0.77-0.075,1.59-0.075c0.551,0,0.93,0.035,1.139,0.105c0.207,0.07,0.352,0.198,0.43,0.383
		c0.08,0.185,0.201,0.747,0.365,1.687c0.164,0.94,0.377,2.054,0.637,3.34c0.262,1.286,0.43,1.929,0.506,1.929
		s0.326-0.868,0.752-2.605c0.424-1.737,0.668-2.863,0.732-3.379h-0.475c-0.105-0.205-0.158-0.422-0.158-0.65
		s0.047-0.394,0.137-0.496c0.092-0.103,0.238-0.154,0.443-0.154h2.988c0.105,0.199,0.158,0.41,0.158,0.633
		c0,0.258-0.049,0.434-0.148,0.527s-0.273,0.141-0.52,0.141H96.768z"/>
</g>
</svg>
